# AST/ASF file generated using VICON BodyLanguage
# -----------------------------------------------
:version 1.10
:name VICON
:units
  mass 1.0
  length 0.45
  angle deg
:documentation
   .ast/.asf automatically generated from VICON data using
   VICON BodyBuilder and BodyLanguage model FoxedUp or BRILLIANT.MOD
:root
   order TX TY TZ RX RY RZ
   axis XYZ
   position 0 0 0  
   orientation 0 0 0 
:bonedata
  begin
     id 1 
     name lhipjoint
     direction 0.627412 -0.730575 0.26947 
     length 2.49821 
     axis 0 0 0  XYZ
  end
  begin
     id 2 
     name lfemur
     direction 0.34202 -0.939693 0  
     length 6.89165  
     axis 0 0 20  XYZ
    dof rx ry rz
    limits (-160.0 20.0)
           (-70.0 70.0)
           (-60.0 70.0)
  end
  begin
     id 3 
     name ltibia
     direction 0.34202 -0.939693 0   
     length 7.91287   
     axis 0 0 20   XYZ
    dof rx
    limits (-10.0 170.0)
  end
  begin
     id 4 
     name lfoot
     direction 0.0941675 -0.258723 0.96135   
     length 2.16919   
     axis -90 7.62852e-016 20   XYZ
    dof rx rz
    limits (-45.0 90.0)
           (-70.0 20.0)
  end
  begin
     id 5 
     name ltoes
     direction 1.5347e-011 -4.21941e-011 1   
     length 1.08535   
     axis -90 7.62852e-016 20   XYZ
    dof rx
    limits (-90.0 20.0)
  end
  begin
     id 6 
     name rhipjoint
     direction -0.614241 -0.740361 0.27308   
     length 2.46519  
     axis 0 0 0  XYZ 
  end
  begin
     id 7 
     name rfemur
     direction -0.34202 -0.939693 0   
     length 7.27512   
     axis 0 0 -20   XYZ
    dof rx ry rz
    limits (-160.0 20.0)
           (-70.0 70.0)
           (-70.0 60.0)
  end
  begin
     id 8 
     name rtibia
     direction -0.34202 -0.939693 0   
     length 7.89523   
     axis 0 0 -20   XYZ
    dof rx
    limits (-10.0 170.0)
 end
 begin
     id 9 
     name rfoot
     direction -0.0860444 -0.236405 0.967837   
     length 2.29534  
     axis -90 -7.62852e-016 -20   XYZ
    dof rx rz
    limits (-45.0 90.0)
           (-20.0 70.0)
  end
  begin
     id 10 
     name rtoes
     direction -1.53608e-011 -4.21861e-011 1   
     length 1.14915   
     axis -90 -7.62852e-016 -20   XYZ
    dof rx
    limits (-90.0 20.0)
  end
  begin
     id 11 
     name lowerback
     direction -0.00734074 0.997215 -0.0742143   
     length 2.13469   
     axis 0 0 0   XYZ
    dof rx ry rz
    limits (-20.0 45.0)
           (-30.0 30.0)
           (-30.0 30.0)
  end
  begin
     id 12 
     name upperback
     direction 0.0285728 0.99958 -0.00488656   
     length 2.13416   
     axis 0 0 0   XYZ
    dof rx ry rz
    limits (-20.0 45.0)
           (-30.0 30.0)
           (-30.0 30.0)
  end
  begin
     id 13 
     name thorax
     direction 0.0316844 0.999056 0.0297249   
     length 2.14463   
     axis 0 0 0   XYZ
    dof rx ry rz
    limits (-20.0 45.0)
           (-30.0 30.0)
           (-30.0 30.0)
  end
  begin
     id 14 
     name lowerneck
     direction -0.0281545 0.996802 0.0747864   
     length 1.79004   
     axis 0 0 0   XYZ
    dof rx ry rz
    limits (-20.0 45.0)
           (-30.0 30.0)
           (-30.0 30.0)
  end
  begin
     id 15 
     name upperneck
     direction -0.00100185 0.982732 -0.185031   
     length 1.79988   
     axis 0 0 0   XYZ
    dof rx ry rz
    limits (-20.0 45.0)
           (-30.0 30.0)
           (-30.0 30.0)
  end
  begin
     id 16
     name head
     direction 0.00403747 0.997539 -0.0700022  
     length 1.81696  
     axis 0 0 0   XYZ
    dof rx ry rz
    limits (-20.0 45.0)
           (-30.0 30.0)
           (-30.0 30.0)
  end
  begin
     id 17 
     name lclavicle
     direction 0.959882 0.242905 -0.140082  
     length 3.87755  
     axis 0 0 0   XYZ
    dof ry rz
    limits (-20.0 10.0)
           (0.0 20.0)
  end
  begin
     id 18 
     name lhumerus
     direction 1 -4.4895e-011 3.76166e-027   
     length 5.14601   
     axis 180 -30 -90   XYZ
    dof rx ry rz
    limits (-60.0 90.0)
           (-90.0 90.0)
           (-90.0 90.0)
  end
  begin
     id 19
     name lradius
     direction 1 -4.48966e-011 -3.24039e-027   
     length 3.64452   
     axis 180 -30 -90   XYZ
    dof rx
    limits (-10.0 170.0)
  end
  begin
     id 20
     name lwrist
     direction 1 -4.48999e-011 2.57119e-027   
     length 1.82226   
     axis -1.61769e-015 90 90   XYZ
    dof ry
    limits (-180.0 0.0)
 end
  begin
     id 21 
     name lhand
     direction 1 -4.48961e-011 5.13984e-027   
     length 0.56228   
     axis -3.27988e-015 90 90   XYZ
    dof rx rz
    limits (-90.0 90.0)
           (-45.0 45.0)
  end
  begin
     id 22 
     name lfingers
     direction 1 -4.48991e-011 1.02836e-026   
     length 0.453325   
     axis -6.5598e-015 90 90   XYZ
    dof rx
    limits (0.0 90.0)
  end
  begin
     id 23
     name lthumb
     direction 0.707107 -6.34956e-011 0.707107   
     length 0.650886   
     axis -90 45 2.19363e-014   XYZ
    dof rx rz
    limits (-45.0 45.0)
           (-45.0 45.0)
  end
  begin
     id 24 
     name rclavicle
     direction -0.929201 0.345171 -0.132073   
     length 3.55416  
     axis 0 0 0   XYZ 
    dof ry rz
    limits (-10.0 20.0)
           (-20.0 0.0)
  end
  begin
     id 25 
     name rhumerus
     direction -1 -4.48979e-011 4.53734e-027  
     length 5.33913   
     axis 180 30 90   XYZ
    dof rx ry rz
    limits (-90.0 60.0)
           (-90.0 90.0)
           (-90.0 90.0)
  end
  begin
     id 26 
     name rradius
     direction -1 -4.4896e-011 -2.24007e-027   
     length 3.56478   
     axis 180 30 90   XYZ
    dof rx
    limits (-10.0 170.0)
  end
  begin
     id 27 
     name rwrist
     direction -1 -4.48923e-011 2.56866e-027   
     length 1.78239   
     axis -1.61769e-015 -90 -90   XYZ
    dof ry
    limits (-180.0 0.0)
  end
  begin
     id 28
     name rhand
     direction -1 -4.48914e-011 5.13667e-027   
     length 0.857474   
     axis -3.27988e-015 -90 -90   XYZ
    dof rx rz
    limits (-90.0 90.0)
           (-45.0 45.0)
  end
  begin
     id 29
     name rfingers
     direction -1 -4.49112e-011 1.02998e-026   
     length 0.691318   
     axis -6.5598e-015 -90 -90   XYZ
    dof rx
    limits (0.0 90.0)
  end
  begin
     id 30
     name rthumb
     direction -0.707107 -6.34979e-011 0.707107   
     length 0.992598   
     axis -90 -45 -2.19363e-014   XYZ
    dof rx rz
    limits (-45.0 45.0)
           (-45.0 45.0)
  end
:hierarchy
  begin
    root lhipjoint rhipjoint lowerback
    lhipjoint lfemur
    lfemur ltibia
    ltibia lfoot
    lfoot ltoes
    rhipjoint rfemur
    rfemur rtibia
    rtibia rfoot
    rfoot rtoes
    lowerback upperback
    upperback thorax
    thorax lowerneck lclavicle rclavicle
    lowerneck upperneck
    upperneck head
    lclavicle lhumerus
    lhumerus lradius
    lradius lwrist
    lwrist lhand lthumb
    lhand lfingers
    rclavicle rhumerus
    rhumerus rradius
    rradius rwrist
    rwrist rhand rthumb
    rhand rfingers
  end

#!OML:ASF F:\VICON\USERDATA\INSTALL\Justin4\Justin4.ASF
:FULLY-SPECIFIED
:DEGREES
1827
root -6.93261 16.7938 16.8298 -2.25518 12.5184 -0.771332
lowerback 11.6183 1.87734 0.152179
upperback 2.30981 2.59606 1.66958
thorax -4.1637 1.29405 1.26443
lowerneck -11.1542 -2.16362 -7.81993
upperneck 15.9145 -2.30346 4.58976
head 6.8397 -1.1806 2.56207
rclavicle -4.51738e-014 -7.15625e-015
rhumerus -7.04891 14.238 -85.0688
rradius 136.574
rwrist -0.676525
rhand -5.4996 31.9262
rfingers 7.12502
rthumb 20.3133 -357.032
lclavicle -4.51738e-014 -7.15625e-015
lhumerus 1.31754 -11.3458 85.2332
lradius 133.685
lwrist 10.3347
lhand -4.38384 11.124
lfingers 7.12502
lthumb 21.3853 39.9638
rfemur -1.23238 -5.41717 21.2538
rtibia 49.6392
rfoot -20.486 -13.1923
rtoes -9.85913
lfemur -28.2174 -0.658963 -3.75163
ltibia 39.3657
lfoot 3.0255 0.260499
ltoes -34.7517
1828
root -7.04724 16.851 16.689 -1.96314 12.6927 -0.920812
lowerback 11.7907 1.78825 0.155541
upperback 2.27992 2.47699 1.59732
thorax -4.28382 1.23455 1.19958
lowerneck -11.4312 -2.03868 -7.69532
upperneck 15.7871 -2.11059 4.4655
head 6.8318 -1.08704 2.5169
rclavicle -3.73218e-014 7.95139e-016
rhumerus -7.12988 14.5665 -85.0556
rradius 136.465
rwrist -0.0649892
rhand -5.8415 26.9522
rfingers 7.12502
rthumb 19.9847 -362.04
lclavicle -3.73218e-014 7.95139e-016
lhumerus 1.38003 -11.4656 85.1688
lradius 133.755
lwrist 10.2927
lhand -4.54481 11.32
lfingers 7.12502
lthumb 21.2307 40.1773
rfemur -1.81395 -6.37522 21.6142
rtibia 48.7926
rfoot -20.6892 -12.9664
rtoes -9.13562
lfemur -28.4575 -1.11791 -3.29679
ltibia 37.852
lfoot 4.90808 0.591483
ltoes -34.3349
1829
root -7.16566 16.9218 16.556 -1.62836 12.8438 -0.995199
lowerback 11.931 1.81103 0.0670115
upperback 2.19507 2.49333 1.49593
thorax -4.44953 1.24301 1.13538
lowerneck -11.495 -1.97818 -7.57943
upperneck 15.5623 -2.02023 4.34633
head 6.76257 -1.04409 2.46535
rclavicle 3.69243e-014 -1.27222e-014
rhumerus -7.25462 14.096 -84.8156
rradius 136.395
rwrist -0.904347
rhand -5.27326 30.5292
rfingers 7.12502
rthumb 20.5308 -358.405
lclavicle 3.69243e-014 -1.27222e-014
lhumerus 1.33359 -11.8766 85.2152
lradius 133.655
lwrist 10.2207
lhand -4.66637 11.2737
lfingers 7.12502
lthumb 21.1139 40.1441
rfemur -2.38162 -7.18971 21.9148
rtibia 47.9227
rfoot -20.5959 -12.2914
rtoes -8.2811
lfemur -28.5665 -1.4876 -2.89616
ltibia 36.1334
lfoot 6.69993 0.812984
ltoes -33.132
1830
root -7.28162 16.9994 16.4379 -1.29004 12.9856 -0.999854
lowerback 11.853 1.83359 -0.162349
upperback 2.17033 2.49037 1.42082
thorax -4.43863 1.24433 1.18843
lowerneck -11.8081 -1.88948 -7.8761
upperneck 15.6196 -1.873 4.65132
head 6.83145 -0.962333 2.62719
rclavicle 5.8393e-014 1.11319e-014
rhumerus -7.68404 13.8957 -84.5198
rradius 136.501
rwrist -0.610688
rhand -5.05094 28.8145
rfingers 7.12502
rthumb 20.7445 -360.097
lclavicle 5.8393e-014 1.11319e-014
lhumerus 1.23089 -12.2265 85.3285
lradius 133.498
lwrist 10.108
lhand -4.63726 11.0152
lfingers 7.12502
lthumb 21.1419 39.8825
rfemur -2.82227 -8.11382 22.0615
rtibia 47.0472
rfoot -20.2481 -11.6434
rtoes -7.33667
lfemur -28.4893 -1.85737 -2.56704
ltibia 34.3647
lfoot 8.05128 1.23473
ltoes -31.16
1831
root -7.39549 17.0781 16.3223 -1.00552 13.0415 -1.26749
lowerback 11.5256 1.82665 -0.216132
upperback 2.22683 2.47169 1.40727
thorax -4.20004 1.23572 1.21838
lowerneck -11.9864 -1.78568 -8.08362
upperneck 15.7145 -1.74487 5.02682
head 6.88855 -0.879967 2.79721
rclavicle -1.6847e-014 1.11319e-014
rhumerus -8.18172 13.826 -84.2785
rradius 136.649
rwrist 0.218179
rhand -5.46309 26.2635
rfingers 7.12502
rthumb 20.3484 -362.69
lclavicle -1.6847e-014 1.11319e-014
lhumerus 1.16598 -12.4992 85.3124
lradius 133.338
lwrist 9.73089
lhand -4.17315 11.0047
lfingers 7.12502
lthumb 21.5877 39.8215
rfemur -3.30186 -9.01154 22.4839
rtibia 46.1956
rfoot -19.6115 -11.092
rtoes -9.14904
lfemur -28.3531 -2.14162 -1.95115
ltibia 32.737
lfoot 8.68205 1.82015
ltoes -30.0708
1832
root -7.50266 17.1586 16.2103 -0.9196 13.0412 -1.71466
lowerback 11.1787 1.85473 -0.0205065
upperback 2.42618 2.52865 1.42094
thorax -3.79423 1.26158 1.12863
lowerneck -11.8278 -1.76776 -7.96648
upperneck 15.6211 -1.76613 5.09931
head 6.83118 -0.877914 2.79881
rclavicle 2.76311e-014 -2.78299e-015
rhumerus -8.27689 13.4408 -83.8188
rradius 136.667
rwrist 0.351491
rhand -5.58288 25.4469
rfingers 7.12502
rthumb 20.2333 -363.519
lclavicle 2.76311e-014 -2.78299e-015
lhumerus 1.30756 -13.0354 85.3454
lradius 132.741
lwrist 8.58357
lhand -4.88285 9.51264
lfingers 7.12502
lthumb 20.906 38.4061
rfemur -3.66644 -9.80841 22.9877
rtibia 45.4274
rfoot -18.8917 -9.92126
rtoes -10.8491
lfemur -28.0172 -2.24084 -1.26173
ltibia 31.4819
lfoot 8.56649 2.18698
ltoes -30.4895
1833
root -7.60122 17.2485 16.1096 -0.842278 12.8567 -2.0208
lowerback 11.0936 1.85696 0.122456
upperback 2.43175 2.54356 1.34071
thorax -3.73197 1.26725 0.965633
lowerneck -11.7136 -1.65317 -7.81836
upperneck 15.8308 -1.66998 5.20978
head 6.87059 -0.816417 2.82213
rclavicle 4.32605e-014 6.16232e-015
rhumerus -8.66557 13.5589 -83.5181
rradius 136.685
rwrist 1.29781
rhand -6.5922 24.2297
rfingers 7.12502
rthumb 19.263 -364.836
lclavicle 4.32605e-014 6.16232e-015
lhumerus 1.11741 -13.1878 85.3354
lradius 133.501
lwrist 10.4454
lhand -3.62329 12.1477
lfingers 7.12502
lthumb 22.1157 40.9029
rfemur -4.02054 -10.5803 23.2095
rtibia 44.8265
rfoot -17.98 -8.20302
rtoes -10.5616
lfemur -27.5557 -2.01344 -0.910971
ltibia 30.8354
lfoot 7.73471 2.163
ltoes -32.1365
1834
root -7.69148 17.3529 16.0006 -0.578707 12.47 -2.10934
lowerback 11.7266 1.83295 0.291145
upperback 1.8608 2.5269 1.01832
thorax -4.65571 1.25235 0.506387
lowerneck -11.4805 -1.4124 -7.49631
upperneck 16.3547 -1.4527 5.33857
head 6.98013 -0.687775 2.83793
rclavicle 2.6985e-014 -1.25234e-014
rhumerus -9.60841 13.0638 -83.5556
rradius 136.543
rwrist 0.0518713
rhand -5.48161 25.4319
rfingers 7.12502
rthumb 20.3306 -363.524
lclavicle 2.6985e-014 -1.25234e-014
lhumerus -0.0505787 -13.4478 85.0914
lradius 133.921
lwrist 11.0227
lhand -3.72353 12.5793
lfingers 7.12502
lthumb 22.0194 41.3458
rfemur -4.79977 -11.3344 23.169
rtibia 44.5064
rfoot -16.6301 -6.25722
rtoes -9.15993
lfemur -27.2281 -1.5442 -1.01155
ltibia 30.8829
lfoot 6.29144 1.86083
ltoes -35.2248
1835
root -7.7709 17.4617 15.8792 -0.362166 12.1067 -2.23647
lowerback 11.1745 1.88021 0.407946
upperback 2.31178 2.59323 1.00448
thorax -3.87408 1.28679 0.444007
lowerneck -12.1309 -1.2956 -7.6925
upperneck 16.0903 -1.20466 5.35034
head 6.99365 -0.570603 2.89502
rclavicle -2.90847e-014 1.63003e-014
rhumerus -8.63832 12.3716 -82.5194
rradius 135.893
rwrist -1.08408
rhand -5.01471 27.3099
rfingers 7.12502
rthumb 20.7793 -361.597
lclavicle -2.90847e-014 1.63003e-014
lhumerus 0.463632 -13.6268 85.0992
lradius 133.895
lwrist 11.029
lhand -4.04383 12.304
lfingers 7.12502
lthumb 21.7119 41.1064
rfemur -5.81428 -12.2298 23.1141
rtibia 44.5588
rfoot -15.1179 -4.08086
rtoes -7.57187
lfemur -26.9593 -1.08508 -1.25678
ltibia 31.5929
lfoot 4.69068 1.71548
ltoes -36.537
1836
root -7.84752 17.5651 15.756 -0.242562 11.7667 -2.49662
lowerback 11.4862 1.79974 0.680593
upperback 2.3888 2.52176 1.02398
thorax -3.9542 1.24803 0.312641
lowerneck -13.4184 -0.948708 -7.94909
upperneck 16.3336 -0.627373 5.57889
head 7.25882 -0.277123 3.07714
rclavicle 3.55576e-014 -4.02539e-015
rhumerus -8.40806 12.1036 -81.8639
rradius 135.629
rwrist -2.14835
rhand -4.20573 28.1568
rfingers 7.12502
rthumb 21.5564 -360.664
lclavicle 3.55576e-014 -4.02539e-015
lhumerus 0.436682 -13.5242 85.1587
lradius 133.871
lwrist 11.0937
lhand -4.0791 11.9296
lfingers 7.12502
lthumb 21.678 40.7359
rfemur -6.97422 -13.1952 23.213
rtibia 45.0057
rfoot -13.334 -1.91209
rtoes -6.52881
lfemur -26.8579 -0.824916 -1.29436
ltibia 32.9337
lfoot 3.31045 2.0596
ltoes -34.391
1837
root -7.92285 17.6674 15.6343 -0.158211 11.2666 -2.71204
lowerback 11.8644 1.70836 0.844467
upperback 2.36327 2.42404 0.993352
thorax -4.18076 1.196 0.190549
lowerneck -13.4974 -0.95327 -8.06593
upperneck 16.7735 -0.627297 5.66134
head 7.4166 -0.280353 3.13162
rclavicle -3.29051e-014 -1.10325e-014
rhumerus -8.72172 12.6354 -81.6357
rradius 135.725
rwrist -1.03099
rhand -5.02282 24.5656
rfingers 7.12502
rthumb 20.7715 -364.343
lclavicle -3.29051e-014 -1.10325e-014
lhumerus 0.236334 -13.2464 85.1311
lradius 133.885
lwrist 11.0739
lhand -3.67357 11.863
lfingers 7.12502
lthumb 22.0674 40.6239
rfemur -8.39987 -14.031 23.277
rtibia 45.7993
rfoot -10.9027 0.250598
rtoes -4.43869
lfemur -26.8288 -0.381847 -1.37072
ltibia 34.8191
lfoot 2.15164 2.17995
ltoes -32.7903
1838
root -7.98941 17.7668 15.5071 -0.0536926 10.6025 -2.9163
lowerback 12.1909 1.67291 0.993998
upperback 2.22507 2.40096 0.971775
thorax -4.49825 1.17966 0.0746973
lowerneck -13.4171 -0.718084 -7.65842
upperneck 17.1454 -0.344954 5.34089
head 7.50225 -0.153677 2.99175
rclavicle -8.71226e-015 5.68283e-015
rhumerus -9.08329 13.1116 -81.3791
rradius 135.553
rwrist 0.252711
rhand -6.19151 22.3888
rfingers 7.12502
rthumb 19.6482 -366.638
lclavicle -8.71226e-015 5.68283e-015
lhumerus -0.165129 -13.0685 85.2149
lradius 133.838
lwrist 10.7417
lhand -3.86468 11.7507
lfingers 7.12502
lthumb 21.8839 40.5331
rfemur -10.0356 -14.7551 23.3136
rtibia 46.8377
rfoot -8.28905 2.36604
rtoes -1.5374
lfemur -26.7189 0.454173 -1.56682
ltibia 37.0622
lfoot 1.1712 1.38377
ltoes -33.2355
1839
root -8.04681 17.8543 15.3699 0.139953 9.89359 -2.7813
lowerback 12.495 1.6677 0.845263
upperback 2.21658 2.37746 0.950117
thorax -4.67995 1.16834 0.129787
lowerneck -13.707 -0.463625 -7.70004
upperneck 17.365 0.0473709 5.25584
head 7.59821 0.0231138 3.01607
rclavicle 8.79933e-015 -8.3738e-015
rhumerus -8.86541 12.4957 -80.7012
rradius 135.053
rwrist -1.37428
rhand -4.84904 26.0656
rfingers 7.12502
rthumb 20.9384 -362.824
lclavicle 8.79933e-015 -8.3738e-015
lhumerus -0.401106 -12.8066 85.4339
lradius 133.792
lwrist 10.508
lhand -4.32387 11.6498
lfingers 7.12502
lthumb 21.4429 40.483
rfemur -11.7303 -15.4987 22.9337
rtibia 48.017
rfoot -5.93 4.43383
rtoes 0.757878
lfemur -26.5441 1.02097 -2.13634
ltibia 39.4602
lfoot 0.310499 -0.019116
ltoes -32.8793
